<?xml version="1.0" encoding="UTF-8"?>
<svg id="Layer_1" data-name="Layer 1" xmlns="http://www.w3.org/2000/svg" viewBox="0 0 1620.23 1304.15">
  <defs>
    <style>
      .cls-1 {
        fill: #FFF;
        stroke: #231f20;
        stroke-miterlimit: 10;
      }
    </style>
  </defs>
  <path class="cls-1" d="m54.79.5h0,943.66c11.57,73.53,23.15,147.06,34.72,220.6-234.89,283.23-469.79,566.47-704.68,849.7h1051.99c44.23,77.62,88.46,155.23,132.69,232.85-1052.24-.32-1496.2-.28-1505.36,0-.06,0-.07,0-.11,0-11.8-.8-7.13-120.33,0-236.94C232.42,791.65,457.14,516.59,681.86,241.52H85.42L54.79.5Z"/>
  <polygon class="cls-1" points="1619.39 .5 1484.58 247.65 1031.13 247.65 1047.48 221.1 1012.75 .5 1619.39 .5"/>
  <path class="cls-1" d="m596.07,770.54h567.83l28.6-210.38-416.68-8.17-179.74,218.55Z"/>
  <line class="cls-1" x1="54.79" y1=".5" x2="998.46" y2=".5"/>
</svg>